<svg width="59" height="80" viewBox="0 0 59 80" fill="none" xmlns="http://www.w3.org/2000/svg">
<path d="M43.327 33.5322V58.4572H15.14V33.5322H3.86523L29.2335 3.04053L54.6017 33.5322H43.327Z" fill="#34d399"/>
<path d="M55.6392 36.3211C54.7902 36.3211 53.9499 35.9714 53.3703 35.2944L29.2812 7.16071L5.195 35.2944C4.16738 36.4945 2.32878 36.6651 1.07573 35.6916C-0.177327 34.7097 -0.361767 32.9502 0.659999 31.7557L27.0122 0.975602C28.1276 -0.325201 30.4317 -0.325201 31.5472 0.975602L57.9023 31.7557C58.927 32.9502 58.7396 34.7125 57.4866 35.6916C56.945 36.114 56.2921 36.3211 55.6392 36.3211Z" fill="#34d399"/>
<path d="M14.6421 61.4982C13.0231 61.4982 11.7144 60.2478 11.7144 58.7008V33.524C11.7144 31.977 13.0231 30.7266 14.6421 30.7266C16.2611 30.7266 17.5698 31.977 17.5698 33.524V58.7008C17.5698 60.2478 16.2611 61.4982 14.6421 61.4982Z" fill="#34d399"/>
<path d="M43.9191 61.4979H14.6421C13.023 61.4979 11.7144 60.2475 11.7144 58.7005C11.7144 57.1535 13.023 55.9031 14.6421 55.9031H43.9191C45.5381 55.9031 46.8468 57.1535 46.8468 58.7005C46.8468 60.2475 45.5381 61.4979 43.9191 61.4979Z" fill="#34d399"/>
<path d="M43.9199 61.4982C42.3009 61.4982 40.9922 60.2478 40.9922 58.7008V33.524C40.9922 31.977 42.3009 30.7266 43.9199 30.7266C45.539 30.7266 46.8477 31.977 46.8477 33.524V58.7008C46.8477 60.2478 45.539 61.4982 43.9199 61.4982Z" fill="#34d399"/>
<path d="M14.6432 36.3214H2.92941C1.31039 36.3214 0.00170898 35.071 0.00170898 33.524C0.00170898 31.977 1.31039 30.7266 2.92941 30.7266H14.6432C16.2622 30.7266 17.5709 31.977 17.5709 33.524C17.5709 35.071 16.2622 36.3214 14.6432 36.3214Z" fill="#34d399"/>
<path d="M55.6367 36.3214H43.9199C42.3009 36.3214 40.9922 35.071 40.9922 33.524C40.9922 31.977 42.3009 30.7266 43.9199 30.7266H55.6367C57.2558 30.7266 58.5645 31.977 58.5645 33.524C58.5645 35.071 57.2558 36.3214 55.6367 36.3214Z" fill="#34d399"/>
<path d="M34.8718 39.2013H23.597C22.0383 39.2013 20.7783 37.9221 20.7783 36.3396C20.7783 34.7571 22.0383 33.4779 23.597 33.4779H34.8718C36.4306 33.4779 37.6906 34.7571 37.6906 36.3396C37.6906 37.9221 36.4306 39.2013 34.8718 39.2013Z" fill="#059669"/>
<path d="M29.2337 44.9221C27.675 44.9221 26.415 43.6429 26.415 42.0604V30.6193C26.415 29.0367 27.675 27.7576 29.2337 27.7576C30.7924 27.7576 32.0524 29.0367 32.0524 30.6193V42.0604C32.0524 43.6429 30.7924 44.9221 29.2337 44.9221Z" fill="#059669"/>
<rect x="11.6938" y="65.1582" width="35.1773" height="5.59071" rx="2.79536" fill="#34d399"/>
<rect x="11.6938" y="74.4093" width="35.1773" height="5.59071" rx="2.79536" fill="#34d399"/>
</svg>
