
<svg width="14" height="16" viewBox="0 0 14 16" fill="none" xmlns="http://www.w3.org/2000/svg">
<path d="M10.5003 8.72162V15.2719H3.50163V8.72162H0.702148L7.00098 0.708496L13.2998 8.72162H10.5003Z" fill="#34d399"/>
<path d="M13.3007 9.44965C13.0977 9.44965 12.8969 9.35867 12.7583 9.18254L6.99973 1.863L1.24188 9.18254C0.996222 9.49477 0.556701 9.53917 0.257155 9.28589C-0.0423905 9.03043 -0.0864813 8.57264 0.157774 8.26187L6.45733 0.253822C6.72398 -0.0846074 7.27478 -0.0846074 7.54143 0.253822L13.8417 8.26187C14.0866 8.57264 14.0419 9.03116 13.7423 9.28589C13.6128 9.39579 13.4568 9.44965 13.3007 9.44965Z" fill="#34d399"/>
<path d="M3.50017 16C3.11314 16 2.80029 15.6747 2.80029 15.2722V8.72195C2.80029 8.31947 3.11314 7.99414 3.50017 7.99414C3.8872 7.99414 4.20004 8.31947 4.20004 8.72195V15.2722C4.20004 15.6747 3.8872 16 3.50017 16Z" fill="#34d399"/>
<path d="M10.4989 15.9997H3.50017C3.11314 15.9997 2.80029 15.6744 2.80029 15.2719C2.80029 14.8694 3.11314 14.5441 3.50017 14.5441H10.4989C10.8859 14.5441 11.1988 14.8694 11.1988 15.2719C11.1988 15.6744 10.8859 15.9997 10.4989 15.9997Z" fill="#34d399"/>
<path d="M10.4992 16C10.1122 16 9.79932 15.6747 9.79932 15.2722V8.72195C9.79932 8.31947 10.1122 7.99414 10.4992 7.99414C10.8862 7.99414 11.199 8.31947 11.199 8.72195V15.2722C11.199 15.6747 10.8862 16 10.4992 16Z" fill="#34d399"/>
<path d="M3.50056 9.44975H0.700364C0.313333 9.44975 0.000488281 9.12442 0.000488281 8.72195C0.000488281 8.31947 0.313333 7.99414 0.700364 7.99414H3.50056C3.8876 7.99414 4.20044 8.31947 4.20044 8.72195C4.20044 9.12442 3.8876 9.44975 3.50056 9.44975Z" fill="#34d399"/>
<path d="M13.3001 9.44975H10.4992C10.1122 9.44975 9.79932 9.12442 9.79932 8.72195C9.79932 8.31947 10.1122 7.99414 10.4992 7.99414H13.3001C13.6871 7.99414 13.9999 8.31947 13.9999 8.72195C13.9999 9.12442 13.6871 9.44975 13.3001 9.44975Z" fill="#34d399"/>
</svg>
